P2
60 40
255
0
0
0
210
211
211
210
0
0
0
0
0
0
0
0
0
0
212
212
212
0
0
213
214
213
213
214
213
0
0
0
0
0
0
0
0
0
0
0
0
0
0
0
0
0
0
0
0
0
0
0
0
0
0
0
0
0
0
0
0
211
0
0
211
211
211
211
0
0
211
0
0
0
0
0
0
0
0
212
212
0
213
213
215
214
214
215
213
213
0
0
0
0
0
0
0
0
0
0
0
0
0
0
0
0
0
0
0
0
0
0
0
0
0
0
0
0
0
0
0
210
211
211
211
211
211
211
211
211
210
0
0
0
0
0
0
0
216
0
212
0
213
213
215
215
214
215
213
213
0
0
0
0
0
0
0
0
0
0
0
0
0
0
0
0
0
0
0
0
0
0
0
0
0
0
0
0
0
0
0
0
210
210
210
210
210
210
210
210
0
0
0
0
0
0
0
216
0
0
0
213
213
213
215
215
214
215
213
213
213
0
0
0
0
0
0
0
0
0
0
0
0
0
0
0
0
0
0
0
0
0
0
0
0
0
0
0
0
0
0
0
0
217
217
217
217
217
217
0
0
0
0
0
0
0
216
0
0
0
0
213
213
213
213
213
213
213
213
213
213
0
0
0
0
0
0
0
0
0
0
0
0
0
0
0
0
0
0
0
0
0
0
0
0
0
0
0
0
0
0
0
218
218
211
219
219
211
218
218
0
0
0
0
0
216
0
0
0
0
0
213
213
215
214
215
214
215
214
215
213
0
0
0
0
0
0
0
0
0
0
0
0
0
0
0
0
0
0
0
0
0
0
0
0
0
0
0
0
0
0
0
218
218
211
219
219
211
218
218
0
0
0
0
216
0
0
0
0
0
0
220
213
215
213
215
213
215
213
215
220
0
0
0
0
0
0
0
0
0
0
0
0
0
0
0
0
0
0
0
0
0
0
0
0
0
0
0
0
0
0
0
218
218
211
219
219
211
218
218
0
216
216
216
0
0
0
0
0
0
0
220
220
213
213
213
213
213
213
220
220
0
0
0
0
0
0
0
0
0
0
0
0
0
0
0
0
0
0
0
0
0
0
0
0
0
0
0
0
0
0
0
0
221
221
221
221
221
221
0
0
0
216
216
0
0
0
0
0
0
0
0
220
220
220
220
220
220
220
220
0
0
0
0
0
0
0
0
0
0
0
0
0
0
0
0
0
0
0
0
0
0
0
0
0
0
0
0
0
0
0
0
0
221
221
0
0
221
221
0
0
0
0
216
0
0
0
0
0
0
0
0
220
220
220
0
0
220
220
220
0
0
0
0
0
0
0
0
0
0
0
0
0
0
0
0
0
0
0
0
0
0
0
0
0
0
0
0
0
0
0
214
214
214
214
214
214
214
214
214
214
214
214
214
214
214
214
214
214
214
214
214
214
214
214
214
214
214
214
214
214
0
0
0
0
0
0
0
0
0
0
0
0
0
0
0
0
0
0
0
0
0
0
0
0
0
0
0
0
0
0
214
214
214
214
222
222
222
222
214
214
222
214
214
214
222
214
214
222
214
214
214
214
222
222
222
222
214
214
214
214
0
0
0
0
0
0
0
0
0
0
0
0
0
0
0
0
0
0
0
0
0
0
0
0
0
0
0
0
0
0
214
214
214
222
223
223
222
223
222
222
223
222
222
222
222
222
222
223
222
222
222
222
223
222
223
223
222
214
214
214
0
0
0
0
0
0
0
0
0
0
0
0
0
0
0
0
0
0
0
0
0
0
0
0
0
0
0
0
0
0
214
214
222
222
223
223
222
223
223
223
223
223
223
223
222
223
223
223
223
223
223
223
223
222
223
223
222
222
214
214
0
0
0
0
0
0
0
0
0
0
0
0
0
0
0
0
0
0
0
0
0
0
0
0
0
0
0
0
0
0
214
222
222
223
223
222
223
223
223
222
223
222
223
223
223
222
223
223
222
223
222
223
223
223
222
223
223
222
222
214
0
0
0
0
0
0
0
0
0
0
0
0
0
0
0
0
0
0
0
0
0
0
0
0
0
0
0
0
0
0
214
222
222
223
223
222
223
223
223
222
223
222
223
223
223
222
223
223
222
223
222
223
223
223
222
223
223
222
222
214
0
0
0
0
0
0
0
0
0
0
0
0
0
0
0
0
0
0
0
0
0
0
0
0
0
0
0
0
0
0
214
222
223
223
223
223
222
222
223
222
223
222
223
222
223
222
223
222
223
223
222
223
222
222
223
223
223
223
222
214
0
0
0
0
0
0
0
0
0
0
0
0
0
0
0
0
0
0
0
0
0
0
0
0
0
0
0
0
0
0
214
222
222
223
223
223
223
222
223
223
223
222
223
222
223
223
223
222
223
223
223
223
222
223
223
223
223
222
222
214
0
0
0
0
0
0
0
0
0
0
0
0
0
0
0
0
0
0
0
0
0
0
0
0
0
0
0
0
0
0
214
222
223
223
222
222
223
223
223
223
223
223
223
222
223
223
223
223
223
223
223
223
223
223
222
222
223
223
222
214
0
0
0
0
0
0
0
0
0
0
0
0
0
0
0
0
0
0
0
0
0
0
0
0
0
0
0
0
0
0
214
222
222
222
223
222
222
222
223
222
222
222
222
222
222
222
222
222
222
222
222
223
223
222
222
223
222
222
222
214
0
0
0
0
0
0
0
0
0
0
0
0
0
0
0
0
0
0
0
0
0
0
0
0
0
0
0
0
0
0
214
222
223
223
223
223
223
223
223
222
224
224
224
224
224
224
224
224
224
224
222
223
223
223
223
223
223
223
222
214
0
0
0
0
0
0
0
0
0
0
0
0
0
0
0
0
0
0
0
0
0
0
0
0
0
0
0
0
0
0
214
222
223
223
222
222
223
223
223
222
224
224
225
224
224
224
224
224
224
225
222
223
223
223
222
222
223
223
222
214
0
0
0
0
0
0
0
0
0
0
0
0
0
0
0
0
0
0
0
0
0
0
0
0
0
0
0
0
0
0
214
222
223
223
223
223
222
222
223
222
224
224
224
224
224
224
225
224
224
224
222
223
222
222
223
223
223
223
222
214
0
0
0
0
0
0
0
0
0
0
0
0
0
0
0
0
0
0
0
0
0
0
0
0
0
0
0
0
0
0
214
214
222
223
223
223
223
223
223
222
224
224
224
224
224
224
224
224
225
224
222
223
223
223
223
223
223
222
214
214
0
0
0
0
0
0
0
0
0
0
0
0
0
0
0
0
0
0
0
0
0
0
0
0
0
0
0
0
0
0
214
214
222
223
223
222
222
222
222
222
224
224
224
224
224
224
224
224
224
224
222
222
222
222
222
223
223
222
214
214
0
0
0
0
0
0
0
0
0
0
0
0
0
0
0
0
0
0
0
0
0
0
0
0
0
0
0
0
0
0
214
222
222
222
223
223
223
223
223
222
224
224
224
224
225
224
224
224
224
224
222
223
223
223
223
223
222
222
222
214
0
0
0
0
0
0
0
0
0
0
0
0
0
0
0
0
0
0
0
0
0
0
0
0
0
0
0
0
0
0
214
214
222
223
223
223
222
222
223
222
224
224
224
224
224
224
224
224
224
224
222
223
222
222
223
223
223
222
214
214
0
0
0
0
0
0
0
0
0
0
0
0
0
0
0
0
0
0
0
0
0
0
0
0
0
0
0
0
0
0
214
214
222
222
223
223
223
223
223
222
224
225
224
224
224
224
225
224
224
224
222
223
223
223
223
223
222
222
214
214
0
0
0
0
0
0
0
0
0
0
0
0
0
0
0
0
0
0
0
0
0
0
0
0
0
0
0
0
0
0
214
214
222
223
222
222
222
222
223
222
224
224
224
224
224
224
224
224
224
224
222
223
222
222
222
222
223
222
214
214
0
0
0
0
0
0
0
0
0
0
0
0
0
0
0
0
0
0
0
0
0
0
0
0
0
0
0
0
0
0
214
222
223
223
223
223
223
223
223
222
224
224
224
225
224
224
224
224
224
224
222
223
223
223
223
223
223
223
222
214
0
0
0
0
0
0
0
0
0
0
0
0
0
0
0
0
0
0
0
0
0
0
0
0
0
0
0
0
0
0
214
222
222
222
223
222
222
222
223
222
222
222
222
222
222
222
222
222
222
222
222
223
223
222
222
223
222
222
222
214
0
0
0
0
0
0
0
0
0
0
0
0
0
0
0
0
0
0
0
0
0
0
0
0
0
0
0
0
0
0
214
222
223
223
222
222
223
223
223
223
223
223
223
222
223
223
223
223
223
223
223
223
223
223
222
222
223
223
222
214
0
0
0
0
0
0
0
0
0
0
0
0
0
0
0
0
0
0
0
0
0
0
0
0
0
0
0
0
0
0
214
222
222
223
223
223
223
222
223
223
223
222
223
222
223
223
223
222
223
223
223
223
222
223
223
223
223
222
222
214
0
0
0
0
0
0
0
0
0
0
0
0
0
0
0
0
0
0
0
0
0
0
0
0
0
0
0
0
0
0
214
222
223
223
223
223
222
222
223
222
223
222
223
222
223
222
223
222
223
223
222
223
222
222
223
223
223
223
222
214
0
0
0
0
0
0
0
0
0
0
0
0
0
0
0
0
0
0
0
0
0
0
0
0
0
0
0
0
0
0
214
222
222
223
223
222
223
223
223
222
223
222
223
223
223
222
223
223
222
223
222
223
223
223
222
223
223
222
222
214
0
0
0
0
0
0
0
0
0
0
0
0
0
0
0
0
0
0
0
0
0
0
0
0
0
0
0
0
0
0
214
222
222
223
223
222
223
223
223
222
223
222
223
223
223
222
223
223
222
223
222
223
223
223
222
223
223
222
222
214
0
0
0
0
0
0
0
0
0
0
0
0
0
0
0
0
0
0
0
0
0
0
0
0
0
0
0
0
0
0
214
214
222
222
223
223
222
223
223
223
223
223
223
223
222
223
223
223
223
223
223
223
223
222
223
223
222
222
214
214
0
0
0
0
0
0
0
0
0
0
0
0
0
0
0
0
0
0
0
0
0
0
0
0
0
0
0
0
0
0
214
214
214
222
223
223
222
223
222
222
223
222
222
222
222
222
222
223
222
222
222
222
223
222
223
223
222
214
214
214
0
0
0
0
0
0
0
0
0
0
0
0
0
0
0
0
0
0
0
0
0
0
0
0
0
0
0
0
0
0
214
214
214
214
222
222
222
222
214
214
222
214
214
214
222
214
214
222
214
214
214
214
222
222
222
222
214
214
214
214
0
0
0
0
0
0
0
0
0
0
0
0
0
0
0
0
0
0
0
0
0
0
0
0
0
0
0
0
0
0
214
214
214
214
214
214
214
214
214
214
214
214
214
214
214
214
214
214
214
214
214
214
214
214
214
214
214
214
214
214
0
0
0
0
0
0
0
0
0
0
0
0
0
0
0
0
0
0
0
0
0
0
0
0
0
0
0
0
0
0
