P2
60 40
255
0
0
0
70
71
71
70
0
0
0
0
0
0
0
0
0
0
72
72
72
0
0
73
74
73
73
74
73
0
0
0
0
0
73
73
73
73
73
0
0
0
0
0
0
0
0
0
74
74
0
0
0
0
0
0
74
74
0
74
0
71
0
0
71
71
71
71
0
0
71
0
0
0
0
0
0
0
0
72
72
0
73
73
75
74
74
75
73
73
0
0
73
73
73
73
75
75
73
73
73
0
0
0
0
0
0
0
0
74
0
0
0
0
0
0
0
74
0
74
74
70
71
71
71
71
71
71
71
71
70
0
0
0
0
0
0
0
76
0
72
0
73
73
75
75
74
75
73
73
0
73
73
74
73
73
74
73
73
73
73
0
0
0
0
0
0
0
74
0
0
0
0
0
0
0
74
0
0
0
0
0
70
70
70
70
70
70
70
70
0
0
0
0
0
0
0
76
0
0
0
73
73
73
75
75
74
75
73
73
73
73
73
74
73
73
75
75
73
77
77
0
0
0
0
74
74
0
74
74
0
0
0
0
0
0
74
74
0
0
0
0
0
78
78
78
78
78
78
0
0
0
0
0
0
0
76
0
0
0
0
73
73
73
73
73
73
73
73
73
73
73
73
74
73
73
74
73
73
73
0
0
0
0
0
0
74
0
0
0
0
0
0
0
0
0
0
0
0
0
0
0
79
79
71
80
80
71
79
79
0
0
0
0
0
76
0
0
0
0
0
73
73
75
74
75
74
75
74
75
73
73
73
74
73
73
75
75
73
73
0
0
0
0
0
74
0
0
0
0
0
0
0
0
74
74
0
0
0
0
0
0
79
79
71
80
80
71
79
79
0
0
0
0
76
0
0
0
0
0
0
77
73
75
73
75
73
75
73
75
77
73
73
74
73
73
74
73
73
73
77
0
74
74
0
74
74
0
0
0
0
0
0
0
0
74
0
0
0
0
0
0
79
79
71
80
80
71
79
79
0
76
76
76
0
0
0
0
0
0
0
77
77
73
73
73
73
73
73
77
77
77
77
73
73
73
75
75
73
77
77
0
0
74
0
0
0
0
0
0
0
0
0
0
74
0
0
0
0
0
0
0
0
81
81
81
81
81
81
0
0
0
76
76
0
0
0
0
0
0
0
0
77
77
77
77
77
77
77
77
0
0
77
77
77
77
77
77
77
77
77
0
74
0
0
0
0
0
0
0
0
74
74
0
74
74
0
0
0
0
0
0
0
81
81
0
0
81
81
0
0
0
0
76
0
0
0
0
0
0
0
0
77
77
77
0
0
77
77
77
0
0
0
0
77
77
77
77
77
0
0
0
74
74
0
0
0
0
0
0
0
0
74
0
0
0
0
0
0
0
0
74
74
74
74
74
74
74
74
74
74
74
74
74
74
74
74
74
74
74
74
74
74
74
74
74
74
74
74
74
74
0
0
0
73
73
73
73
73
0
0
0
0
0
0
0
0
0
0
0
0
0
0
0
0
0
0
0
0
0
0
74
74
74
74
82
82
82
82
74
74
82
74
74
74
82
74
74
82
74
74
74
74
82
82
82
82
74
74
74
74
0
73
73
73
73
73
75
75
73
73
0
0
0
0
0
0
0
0
0
0
0
0
0
0
0
0
0
0
0
0
74
74
74
82
83
83
82
83
82
82
83
82
82
82
82
82
82
83
82
82
82
82
83
82
83
83
82
74
74
74
73
74
73
73
73
74
73
73
73
73
0
0
0
0
0
0
0
0
0
0
0
0
0
0
0
0
0
0
0
0
74
74
82
82
83
83
82
83
83
83
83
83
83
83
82
83
83
83
83
83
83
83
83
82
83
83
82
82
74
74
73
73
74
73
74
75
75
73
77
77
0
0
0
0
0
0
0
0
0
0
0
0
0
0
0
0
0
0
0
0
74
82
82
83
83
82
83
83
83
82
83
82
83
83
83
82
83
83
82
83
82
83
83
83
82
83
83
82
82
74
73
73
73
74
73
74
73
73
73
0
0
0
0
0
0
0
0
0
0
0
0
0
0
0
0
0
0
0
0
0
74
82
82
83
83
82
83
83
83
82
83
82
83
83
83
82
83
83
82
83
82
83
83
83
82
83
83
82
82
74
73
73
74
73
74
75
75
73
73
0
0
0
0
0
0
0
0
0
0
0
0
0
0
0
0
0
0
0
0
0
74
82
83
83
83
83
82
82
83
82
83
82
83
82
83
82
83
82
83
83
82
83
82
82
83
83
83
83
82
74
73
74
73
73
73
74
73
73
73
77
0
0
0
0
0
0
0
0
0
0
0
0
0
0
0
0
0
0
0
0
74
82
82
83
83
83
83
82
83
83
83
82
83
82
83
83
83
82
83
83
83
83
82
83
83
83
83
82
82
74
77
77
77
77
77
77
75
75
77
77
0
0
0
0
0
0
0
0
0
0
0
0
0
0
0
0
0
0
0
0
74
82
83
83
82
82
83
83
83
83
83
83
83
82
83
83
83
83
83
83
83
83
83
83
82
82
83
83
82
74
0
77
84
84
84
84
84
84
77
77
0
0
0
0
0
0
0
0
0
0
0
0
0
0
0
0
0
0
0
0
74
82
82
82
83
82
82
82
83
82
82
82
82
82
82
82
82
82
82
82
82
83
83
82
82
83
82
82
82
74
84
84
84
84
84
84
84
84
84
84
0
0
0
0
0
0
0
0
0
0
0
0
0
0
0
0
0
0
0
0
74
82
83
83
83
83
83
83
83
82
85
85
85
85
85
85
85
85
85
85
82
83
83
83
83
83
83
83
82
74
86
86
86
86
86
86
86
86
86
86
0
0
0
0
0
0
0
0
0
0
0
0
0
0
0
0
0
0
0
0
74
82
83
83
82
82
83
83
83
82
85
85
87
85
85
85
85
85
85
87
82
83
83
83
82
82
83
83
82
74
86
86
88
86
86
86
86
86
86
88
0
0
0
0
0
0
0
0
0
0
0
0
0
0
0
0
0
0
0
0
74
82
83
83
83
83
82
82
83
82
85
85
85
85
85
85
87
85
85
85
82
83
82
82
83
83
83
83
82
74
86
86
86
86
86
86
88
86
86
86
0
0
0
0
0
0
0
0
0
0
0
0
0
0
0
0
0
0
0
0
74
74
82
83
83
83
83
83
83
82
85
85
85
85
85
85
85
85
87
85
82
83
83
83
83
83
83
82
74
74
86
86
86
86
86
86
86
86
88
86
0
0
0
0
0
0
0
0
0
0
0
0
0
0
0
0
0
0
0
0
74
74
82
83
83
82
82
82
82
82
85
85
85
85
85
85
85
85
85
85
82
82
82
82
82
83
83
82
74
74
86
86
86
86
86
86
86
86
86
86
0
0
0
0
0
0
0
0
0
0
0
0
0
0
0
0
0
0
0
0
74
82
82
82
83
83
83
83
83
82
85
85
85
85
87
85
85
85
85
85
82
83
83
83
83
83
82
82
82
74
86
86
86
86
88
86
86
86
86
86
0
0
0
0
0
0
0
0
0
0
0
0
0
0
0
0
0
0
0
0
74
74
82
83
83
83
82
82
83
82
85
85
85
85
85
85
85
85
85
85
82
83
82
82
83
83
83
82
74
74
86
86
86
86
86
86
86
86
86
86
0
0
0
0
89
0
0
0
0
0
0
0
0
0
0
0
0
0
0
0
74
74
82
82
83
83
83
83
83
82
85
87
85
85
85
85
87
85
85
85
82
83
83
83
83
83
82
82
74
74
86
88
86
86
86
86
88
86
86
86
0
0
0
89
89
89
0
0
0
0
0
0
0
0
0
0
0
0
0
0
74
74
82
83
82
82
82
82
83
82
85
85
85
85
85
85
85
85
85
85
82
83
82
82
82
82
83
82
74
74
86
86
86
86
86
86
86
86
86
86
0
0
0
0
89
90
90
90
0
0
0
0
0
0
90
90
90
90
0
0
74
82
83
83
83
83
83
83
83
82
85
85
85
87
85
85
85
85
85
85
82
83
83
83
83
83
83
83
82
74
86
86
86
88
86
86
86
86
86
86
0
0
0
0
91
91
91
91
0
0
0
0
0
0
91
91
91
91
0
0
74
82
82
82
83
82
82
82
83
82
82
82
82
82
82
82
82
82
82
82
82
83
83
82
82
83
82
82
82
74
0
0
0
92
92
93
93
0
0
0
0
0
0
0
0
0
0
0
0
0
0
0
0
0
0
0
0
0
0
0
74
82
83
83
82
82
83
83
83
83
83
83
83
82
83
83
83
83
83
83
83
83
83
83
82
82
83
83
82
74
0
0
0
92
0
0
93
0
0
0
0
0
0
0
0
0
0
0
0
0
0
0
0
0
0
0
0
0
0
0
74
82
82
83
83
83
83
82
83
83
83
82
83
82
83
83
83
82
83
83
83
83
82
83
83
83
83
82
82
74
0
0
92
94
94
95
95
93
0
0
0
0
0
0
0
0
0
0
0
0
0
0
0
0
0
0
0
0
0
0
74
82
83
83
83
83
82
82
83
82
83
82
83
82
83
82
83
82
83
83
82
83
82
82
83
83
83
83
82
74
0
0
94
94
94
95
95
95
0
0
0
0
0
0
0
0
0
0
0
0
0
0
0
0
0
0
0
0
0
0
74
82
82
83
83
82
83
83
83
82
83
82
83
83
83
82
83
83
82
83
82
83
83
83
82
83
83
82
82
74
0
92
0
94
89
89
95
0
93
0
0
0
0
0
0
0
0
0
0
0
0
0
0
0
0
0
0
0
0
0
74
82
82
83
83
82
83
83
83
82
83
82
83
83
83
82
83
83
82
83
82
83
83
83
82
83
83
82
82
74
0
92
0
89
89
89
89
0
93
0
0
0
0
0
0
0
0
0
0
0
0
0
0
0
0
0
0
0
0
0
74
74
82
82
83
83
82
83
83
83
83
83
83
83
82
83
83
83
83
83
83
83
83
82
83
83
82
82
74
74
0
92
0
89
89
96
89
0
93
0
0
0
0
0
0
0
0
0
0
0
0
0
0
0
0
0
0
0
0
0
74
74
74
82
83
83
82
83
82
82
83
82
82
82
82
82
82
83
82
82
82
82
83
82
83
83
82
74
74
74
0
92
0
89
96
96
89
0
93
0
0
0
0
0
0
0
0
0
0
0
0
0
0
0
0
0
0
0
0
0
74
74
74
74
82
82
82
82
74
74
82
74
74
74
82
74
74
82
74
74
74
74
82
82
82
82
74
74
74
74
0
92
94
94
96
96
95
95
93
0
0
0
0
0
0
0
0
0
0
0
0
0
0
0
0
0
0
0
0
0
74
74
74
74
74
74
74
74
74
74
74
74
74
74
74
74
74
74
74
74
74
74
74
74
74
74
74
74
74
74
0
0
92
94
94
95
95
93
0
0
0
0
0
0
0
0
0
0
0
0
0
0
0
0
0
0
0
0
0
0
